<svg xmlns="http://www.w3.org/2000/svg" width="360" height="110" viewBox="0 0 360 110">
  <defs><linearGradient id="g" x1="0" y1="0" x2="0" y2="1"><stop stop-color="#c8ff63"/><stop offset=".46" stop-color="#5ccd20"/><stop offset="1" stop-color="#1c7c06"/></linearGradient></defs>
  <path d="M20 15h320a16 16 0 0 1 16 16v45a18 18 0 0 1-18 18H22A18 18 0 0 1 4 76V31a16 16 0 0 1 16-16z" fill="#0d4b02" opacity=".95"/>
  <path d="M20 5h320a16 16 0 0 1 16 16v48a18 18 0 0 1-18 18H22A18 18 0 0 1 4 69V21A16 16 0 0 1 20 5z" fill="url(#g)" stroke="#eaffbd" stroke-width="4"/>
  <path d="M24 12h312c8 0 13 4 15 11H9c2-7 7-11 15-11z" fill="#f5ffd0" opacity=".32"/>
  <path d="M19 70h322" stroke="#124f03" stroke-width="9" opacity=".34"/>
</svg>
