<svg xmlns="http://www.w3.org/2000/svg" width="80" height="80" viewBox="0 0 80 80"><defs><linearGradient id="g" x1="0" y1="0" x2="0" y2="1"><stop stop-color="#ff7b52"/><stop offset=".5" stop-color="#f23521"/><stop offset="1" stop-color="#9d1206"/></linearGradient></defs><path d="M40 70S9 51 9 28c0-12 9-20 20-20 6 0 10 3 11 7 2-4 6-7 12-7 11 0 19 8 19 20 0 23-31 42-31 42z" fill="#5a0603" opacity=".5"/><path d="M40 66S10 48 10 26C10 15 18 8 29 8c6 0 10 3 11 8 2-5 6-8 12-8 11 0 18 7 18 18 0 22-30 40-30 40z" fill="url(#g)" stroke="#ffd0bd" stroke-width="4"/><path d="M20 20c5-6 13-5 18 1" stroke="#fff" stroke-opacity=".5" stroke-width="5" stroke-linecap="round"/></svg>
