<svg xmlns="http://www.w3.org/2000/svg" width="80" height="80" viewBox="0 0 80 80"><defs><linearGradient id="g" x1="0" y1="0" x2="1" y2="1"><stop stop-color="#ffce45"/><stop offset=".52" stop-color="#db7a08"/><stop offset="1" stop-color="#8b3e05"/></linearGradient></defs><path d="M17 30h46v34c0 5-4 8-8 8H25c-4 0-8-3-8-8z" fill="url(#g)" stroke="#6c2d04" stroke-width="4"/><path d="M17 30L8 16l28 4 4 12zM63 30l9-14-28 4-4 12z" fill="#ffc139" stroke="#6c2d04" stroke-width="4"/><path d="M36 20l4-13 22 13-18 1zM44 20L40 7 18 20l18 1z" fill="#e47405" stroke="#6c2d04" stroke-width="4"/><path d="M36 31h8v40h-8z" fill="#ffe08a" opacity=".58"/></svg>
