<svg xmlns="http://www.w3.org/2000/svg" width="420" height="260" viewBox="0 0 420 260">
  <defs>
    <linearGradient id="shield" x1="0" y1="0" x2="0" y2="1">
      <stop stop-color="#365e76"/>
      <stop offset=".58" stop-color="#17384f"/>
      <stop offset="1" stop-color="#082134"/>
    </linearGradient>
    <linearGradient id="gold" x1="0" y1="0" x2="0" y2="1">
      <stop stop-color="#fff79d"/>
      <stop offset=".28" stop-color="#ffd342"/>
      <stop offset=".62" stop-color="#f19a12"/>
      <stop offset="1" stop-color="#b65204"/>
    </linearGradient>
    <linearGradient id="box" x1="0" y1="0" x2="1" y2="1">
      <stop stop-color="#ffd55a"/>
      <stop offset=".42" stop-color="#ee8d0b"/>
      <stop offset="1" stop-color="#8a3b04"/>
    </linearGradient>
    <filter id="shadow" x="-25%" y="-25%" width="150%" height="160%">
      <feDropShadow dx="0" dy="9" stdDeviation="0" flood-color="#2b1100" flood-opacity=".7"/>
      <feDropShadow dx="0" dy="15" stdDeviation="5" flood-color="#000" flood-opacity=".7"/>
      <feDropShadow dx="0" dy="0" stdDeviation="8" flood-color="#ffc63d" flood-opacity=".28"/>
    </filter>
  </defs>
  <g filter="url(#shadow)">
    <path d="M210 12l88 41-15 98-73 44-73-44-15-98z" fill="url(#shield)" stroke="#061724" stroke-width="7"/>
    <g transform="translate(135 8)">
      <path d="M40 75h70l25 27v64c0 9-7 15-16 15H31c-9 0-16-6-16-15v-64z" fill="url(#box)" stroke="#6b2d03" stroke-width="6"/>
      <path d="M15 101L0 54l60 12 15 39zM135 101l15-47-60 12-15 39z" fill="#ffc23a" stroke="#6b2d03" stroke-width="6"/>
      <path d="M60 66l15-48 45 39-30 9zM90 66L75 18 30 57l30 9z" fill="#e77706" stroke="#6b2d03" stroke-width="6"/>
      <path d="M70 78h10v100H70z" fill="#ffe594" opacity=".67"/>
      <path d="M30 125h20v14H30zM100 125h20v14h-20z" fill="#6c3105" opacity=".46"/>
      <path d="M25 82c22 12 78 12 100 0" fill="none" stroke="#fff0a2" stroke-width="4" opacity=".32"/>
    </g>
    <text x="210" y="218" text-anchor="middle" font-family="Arial Black, Impact, sans-serif" font-size="58" font-weight="900" fill="#1a0800" stroke="#1a0800" stroke-width="13" paint-order="stroke" letter-spacing="-3">СОРТИРОВКА</text>
    <text x="210" y="213" text-anchor="middle" font-family="Arial Black, Impact, sans-serif" font-size="58" font-weight="900" fill="url(#gold)" stroke="#4a2100" stroke-width="8" paint-order="stroke" letter-spacing="-3">СОРТИРОВКА</text>
    <text x="210" y="204" text-anchor="middle" font-family="Arial Black, Impact, sans-serif" font-size="58" font-weight="900" fill="#fff4a0" opacity=".42" letter-spacing="-3">СОРТИРОВКА</text>
  </g>
</svg>
